<svg width="48" height="48" viewBox="0 0 48 48" fill="none" xmlns="http://www.w3.org/2000/svg">
<path d="M8.16028 39.0558C8.12274 39 7.72858 37.0236 7.53713 35.961C7.07165 33.3492 6.77884 31.0161 6.62868 28.6978C6.56111 27.6575 6.57237 24.4365 6.64745 23.5337C6.8802 20.7621 7.36445 18.7559 8.29918 16.7163C8.80595 15.6017 9.70689 14.1528 10.499 13.172C11.2085 12.2952 12.3422 11.1955 13.397 10.3596C14.5607 9.44193 15.289 8.98496 16.8056 8.23077C19.2005 7.03448 20.2179 6.68525 27.2414 4.63818C30.7326 3.61648 31.4909 3.38986 32.8535 2.94404C35.3161 2.14155 37.2381 1.37994 39.3928 0.350828C40.0423 0.0424651 40.2187 -0.0281236 40.2562 0.00902831C40.3876 0.13906 40.9357 3.84313 41.1647 6.16512C41.4688 9.2153 41.4988 13.094 41.2435 16.7349C41.0971 18.8191 40.6279 20.9962 39.5918 24.3882C39.0062 26.3052 38.7509 26.9665 38.064 28.3263C36.3822 31.6551 34.1224 34.4341 31.3895 36.5369C30.7025 37.0644 30.0006 37.5214 29.8804 37.5214C29.7716 37.5214 27.6656 37.1684 27.5342 37.1276C27.4179 37.0941 27.4592 37.0458 27.7219 36.9047C29.1071 36.1542 30.0268 35.5486 30.9953 34.7536C31.8137 34.0774 32.8235 33.0706 33.5668 32.1901C35.4925 29.9052 36.9941 27.0557 37.9926 23.7863C38.7509 21.3008 39.2427 18.7374 39.558 15.6017C39.6256 14.9479 39.6406 14.4909 39.6556 12.4067C39.6856 8.57629 39.6368 7.70693 39.1939 4.41898C38.9949 2.92174 38.9987 2.94404 38.9386 3.01091C38.841 3.11865 38.5895 3.77625 38.1653 5.05056C37.6848 6.48835 37.4971 6.93417 36.9078 8.09331C35.9956 9.87661 34.9144 11.3032 33.792 12.1912C32.9361 12.8673 31.367 13.7627 30.2896 14.1862C29.4525 14.5169 28.4051 14.7658 28.4051 14.6358C28.4051 14.6172 28.7392 14.3534 29.1484 14.0562C30.6237 12.9677 31.3257 12.3806 32.3092 11.4036C34.0961 9.62769 35.3611 7.58061 36.5849 4.47471C36.7576 4.04746 36.919 3.63878 36.949 3.5719C37.0091 3.43816 37.0166 3.34156 36.9716 3.34156C36.9528 3.34156 36.5098 3.50132 35.9843 3.69823C33.7319 4.53787 31.382 5.26233 26.1903 6.71869C21.9034 7.9187 19.9964 8.58743 17.8566 9.64255C16.3626 10.3819 15.09 11.2141 13.8963 12.2283C13.3632 12.6853 12.3196 13.7478 11.9142 14.2457C10.6867 15.7615 9.81576 17.3702 9.26393 19.1497C8.74964 20.7919 8.49438 22.2742 8.35548 24.4067C8.26914 25.7442 8.34422 28.3969 8.52816 30.5554C8.59573 31.343 8.61826 31.4731 8.67081 31.4545C8.69334 31.447 8.84349 31.1907 9.00866 30.8861C9.39907 30.1504 9.67311 29.7158 10.1536 29.0805C11.1109 27.7987 11.6852 27.1671 14.5945 24.1838L15.5517 23.1993L15.7282 22.7906C16.0135 22.1145 16.1374 21.5349 16.2012 20.5429C16.2612 19.681 16.3739 19.2018 16.738 18.2804C16.8619 17.9609 17.0083 17.6414 17.0646 17.5671C17.729 16.6531 18.3296 16.0253 18.9453 15.5943C19.7036 15.0593 20.7547 14.6209 21.7082 14.4426C22.0836 14.372 22.2788 14.3609 22.9432 14.3609C23.6527 14.3609 23.7803 14.372 24.2045 14.4612C24.8352 14.5912 25.2856 14.7435 25.8337 15.0073C27.4667 15.7912 28.7092 17.1918 29.261 18.8785C29.5726 19.8222 29.6439 21.1559 29.43 22.081C29.3586 22.3968 29.0696 23.1436 28.8368 23.608C28.2512 24.782 27.2602 25.8445 26.0364 26.6024C25.7999 26.7473 25.5709 26.8996 25.5259 26.9405C25.4471 27.0148 25.4471 27.0222 25.5034 27.1337C25.5372 27.1969 25.9463 27.743 26.4118 28.3449C26.8811 28.9467 27.4479 29.6823 27.6731 29.9795C27.8984 30.2768 28.2512 30.7374 28.4615 31.0012C28.6717 31.2687 29.0771 31.7926 29.3661 32.1715C30.3046 33.4012 30.5824 33.8173 30.5036 33.8619C30.4473 33.8991 28.7055 33.9362 28.5816 33.9028C28.5103 33.8879 28.3638 33.7245 28.0786 33.3492C27.8533 33.0594 26.7835 31.67 25.6986 30.2582C23.5363 27.4495 23.0333 26.7808 22.9394 26.5876C22.8006 26.3015 22.9207 26.1938 23.7953 25.7962C25.8938 24.8451 26.9824 23.8049 27.5042 22.2594C27.8909 21.1002 27.8308 19.9819 27.3203 18.9231C27.065 18.3918 26.7947 18.0166 26.3818 17.6042C25.7849 17.0172 25.0604 16.6048 24.2458 16.3931C23.754 16.2667 22.6842 16.2296 22.1361 16.3225C20.079 16.6791 18.5098 18.325 18.2696 20.3943C18.2433 20.5875 18.2283 21.2637 18.2283 21.8953L18.2358 23.047L18.1382 23.2402C18.0781 23.3628 17.9355 23.5337 17.7703 23.6897C17.6239 23.8272 16.9595 24.4699 16.2988 25.1126C15.6381 25.7554 14.861 26.5095 14.572 26.7845C13.9751 27.3529 12.6274 28.8055 12.177 29.3628C11.49 30.2136 10.9044 31.0941 10.4464 31.9449C9.4704 33.7728 8.9486 35.3294 8.39678 38.0898C8.1828 39.1598 8.19407 39.1115 8.16028 39.0558Z" fill="#75A709"/>
<path d="M10.2761 47.9966C10.1044 47.9817 10.0745 47.9668 10.0409 47.8846C9.95875 47.6642 9.72724 45.9537 9.61522 44.7361C9.548 44.0041 9.5368 40.9005 9.59655 40.1012C9.72724 38.3981 10.0484 36.8594 10.5674 35.4551C10.7877 34.85 11.471 33.4383 11.8034 32.8855C12.8937 31.0816 14.4284 29.3449 19.193 24.512C19.9211 23.7725 20.6007 23.0778 20.7053 22.9695L20.8883 22.7753L20.6978 22.5774C20.1601 22.0246 19.9211 21.315 20.007 20.5008C20.0966 19.6567 20.6269 18.9135 21.4148 18.5363C22.169 18.174 22.871 18.174 23.6365 18.5438C23.9352 18.6857 24.0435 18.7641 24.3124 19.0368C24.8239 19.5484 25.0666 20.1273 25.0666 20.8332C25.0629 21.5204 24.8463 22.0433 24.3534 22.5587C24.1032 22.8201 23.9763 22.9172 23.7186 23.048C23.5394 23.1413 23.278 23.2496 23.1361 23.2945C22.8972 23.3692 22.8486 23.4028 22.4267 23.8099C21.6201 24.583 16.8406 29.4271 16.217 30.0993C14.4433 32.0153 13.5024 33.3113 12.6958 34.9546C12.1432 36.0788 11.8071 37.076 11.5569 38.3309C11.3366 39.4252 11.2171 40.4037 11.3067 40.4037C11.3217 40.4037 11.4598 40.2058 11.6129 39.963C12.3933 38.7417 13.7749 37.1469 15.6158 35.343L16.4933 34.4803L16.5157 34.1479C16.5381 33.7669 16.6688 33.315 16.8406 33.02C16.9899 32.7585 17.3671 32.3626 17.6359 32.1796C18.379 31.6754 19.3312 31.6082 20.1452 32.0004C20.6904 32.2618 21.0563 32.6278 21.3363 33.188C21.5268 33.569 21.5828 33.8155 21.5828 34.2898C21.5828 35.0741 21.3401 35.6194 20.7538 36.161C20.47 36.4261 19.9809 36.695 19.6336 36.7772C19.3872 36.837 18.6553 36.8295 18.4163 36.766C18.14 36.6913 17.7517 36.5046 17.5239 36.329C17.4156 36.2506 17.3148 36.1834 17.2999 36.1834C17.2662 36.1834 15.4814 37.9761 14.8578 38.6297C14.0923 39.4401 13.1924 40.5606 12.6921 41.3262C12.4344 41.7259 11.7884 42.9583 11.6689 43.2795C11.4972 43.7389 11.3142 44.3477 11.3142 44.4485C11.3142 44.5606 11.3142 44.5606 11.3926 44.4896C11.4337 44.4523 11.5644 44.2879 11.6764 44.1199C12.0237 43.6231 12.3149 43.2833 12.8265 42.7753C13.6293 41.9724 14.2305 41.5316 15.1229 41.076C16.3365 40.4635 17.1356 40.2095 20.5485 39.3542C21.3737 39.1488 22.3034 38.9135 22.6096 38.8314C24.2638 38.3832 25.7163 37.864 27.0158 37.2515L27.4489 37.0461L28.5019 37.2329C29.0807 37.3337 29.6408 37.4271 29.7491 37.442C29.8574 37.4532 29.947 37.4756 29.947 37.4906C29.947 37.5354 29.1927 37.9836 28.5654 38.3085C26.1868 39.5522 24.4767 40.1572 20.9667 41.0013C17.8973 41.7408 17.031 42.0246 15.795 42.7006C14.4321 43.4439 13.3082 44.5158 12.4456 45.8939C12.3224 46.0881 12.0237 46.6372 11.781 47.1077C11.5383 47.5821 11.3404 47.9705 11.3366 47.9705C11.3217 47.9892 10.4405 48.0078 10.2761 47.9966ZM19.264 35.1712C19.4843 35.1264 19.7531 34.9061 19.8689 34.682C20.1564 34.1143 19.7718 33.4532 19.1183 33.3934C18.9578 33.3785 18.8495 33.3897 18.73 33.4345C18.5433 33.5055 18.2819 33.7669 18.1998 33.9611C18.1325 34.1255 18.1325 34.4691 18.1998 34.6297C18.308 34.8874 18.5694 35.1115 18.8383 35.1787C19.0026 35.216 19.0586 35.216 19.264 35.1712ZM22.9196 21.6399C23.0727 21.5615 23.278 21.3449 23.3602 21.1768C23.4498 20.9938 23.4498 20.6353 23.3639 20.456C23.1436 20.0078 22.6134 19.7912 22.1877 19.9742C21.7172 20.1759 21.4857 20.7473 21.6911 21.188C21.7844 21.3934 22.0234 21.6101 22.2213 21.6773C22.4192 21.7408 22.759 21.7221 22.9196 21.6399Z" fill="#C9A227"/>
</svg>
