<svg width="34" height="34" viewBox="0 0 34 34" fill="none" xmlns="http://www.w3.org/2000/svg">
<path d="M28.6875 17.709H18.0625V29.3965H27.625C28.2118 29.3965 28.6875 28.9208 28.6875 28.334V17.709ZM6.375 28.334C6.375 28.9208 6.8507 29.3965 7.4375 29.3965H15.9375V17.709H6.375V28.334ZM30.8125 12.9277C30.8125 12.6343 30.5747 12.3965 30.2812 12.3965H18.0625V15.584H30.2812C30.5747 15.584 30.8125 15.3461 30.8125 15.0527V12.9277ZM4.25 15.0527C4.25 15.3461 4.48785 15.584 4.78125 15.584H15.9375V12.3965H4.78125C4.48785 12.3965 4.25 12.6343 4.25 12.9277V15.0527ZM15.9375 7.61523C15.9375 6.14823 14.7483 4.95898 13.2812 4.95898C11.8142 4.95898 10.625 6.14823 10.625 7.61523C10.625 9.08224 11.8142 10.2715 13.2812 10.2715H15.9375V7.61523ZM18.0625 10.2715H20.7187C22.1858 10.2715 23.375 9.08224 23.375 7.61523C23.375 6.14823 22.1858 4.95898 20.7187 4.95898C19.2517 4.95898 18.0625 6.14823 18.0625 7.61523V10.2715ZM25.5 7.61523C25.5 8.59813 25.2034 9.51174 24.6948 10.2715H30.2812C31.7483 10.2715 32.9375 11.4607 32.9375 12.9277V15.0527C32.9375 16.3377 32.0249 17.4089 30.8125 17.655V28.334C30.8125 30.0944 29.3854 31.5215 27.625 31.5215H7.4375C5.67709 31.5215 4.25 30.0944 4.25 28.334V17.655C3.03764 17.4089 2.125 16.3377 2.125 15.0527V12.9277C2.125 11.4607 3.31424 10.2715 4.78125 10.2715H9.30518C8.79661 9.51174 8.5 8.59813 8.5 7.61523C8.5 4.97462 10.6406 2.83398 13.2812 2.83398C14.7834 2.83398 16.1235 3.52693 17 4.61035C17.8765 3.52693 19.2166 2.83398 20.7187 2.83398C23.3594 2.83398 25.5 4.97462 25.5 7.61523Z" fill="#161D17"/>
</svg>
