<svg width="159" height="219" viewBox="0 0 159 219" fill="none" xmlns="http://www.w3.org/2000/svg">
<g style="mix-blend-mode:luminosity">
<path d="M7.19185 178.192C7.02058 177.938 5.22222 168.92 4.34873 164.072C2.22496 152.156 0.889029 141.511 0.203939 130.934C-0.104351 126.188 -0.0529691 111.491 0.289576 107.372C1.35146 94.7273 3.56088 85.5739 7.82556 76.2681C10.1377 71.1829 14.2483 64.5722 17.8622 60.0972C21.0992 56.0969 26.2716 51.0795 31.0844 47.2656C36.3938 43.0788 39.7165 40.9939 46.6359 37.5529C57.5631 32.0948 62.2046 30.5015 94.2496 21.1617C110.178 16.5002 113.638 15.4662 119.855 13.4322C131.09 9.77084 139.859 6.29597 149.69 1.60065C152.653 0.193747 153.458 -0.128314 153.63 0.0411917C154.229 0.634462 156.73 17.5343 157.774 28.1284C159.162 42.0448 159.299 59.7412 158.134 76.3528C157.466 85.8621 155.325 95.7951 150.598 111.271C147.926 120.018 146.762 123.035 143.627 129.239C135.954 144.426 125.644 157.105 113.175 166.699C110.041 169.106 106.838 171.191 106.29 171.191C105.793 171.191 96.185 169.581 95.5855 169.395C95.0546 169.242 95.243 169.022 96.4419 168.378C102.762 164.954 106.958 162.191 111.377 158.563C115.111 155.478 119.718 150.885 123.109 146.867C131.895 136.443 138.746 123.442 143.302 108.525C146.762 97.1851 149.005 85.4892 150.444 71.1829C150.752 68.1996 150.821 66.1147 150.889 56.6054C151.026 39.1293 150.804 35.1629 148.783 20.1616C147.875 13.3304 147.892 13.4322 147.618 13.7373C147.173 14.2288 146.025 17.2292 144.09 23.0432C141.898 29.6031 141.041 31.6372 138.352 36.9257C134.19 45.062 129.258 51.5711 124.137 55.6222C120.232 58.7072 113.072 62.7923 108.157 64.7247C104.338 66.2333 99.559 67.369 99.559 66.7757C99.559 66.691 101.083 65.4875 102.95 64.1314C109.681 59.1649 112.884 56.4867 117.371 52.0287C125.524 43.9263 131.296 34.5866 136.879 20.4159C137.667 18.4665 138.404 16.6019 138.541 16.2968C138.815 15.6866 138.849 15.2459 138.643 15.2459C138.558 15.2459 136.537 15.9748 134.139 16.8732C123.863 20.704 113.141 24.0094 89.454 30.654C69.8947 36.1291 61.1941 39.1802 51.4315 43.9941C44.6149 47.3673 38.8088 51.1642 33.3623 55.7917C30.9302 57.8767 26.1689 62.7245 24.3191 64.9959C18.7185 71.9118 14.745 79.2514 12.2273 87.3707C9.88083 94.8629 8.71618 101.626 8.08247 111.356C7.68854 117.458 8.03109 129.561 8.87032 139.409C9.17861 143.003 9.28138 143.596 9.52116 143.511C9.62392 143.477 10.309 142.308 11.0626 140.918C12.8438 137.561 14.0941 135.578 16.2864 132.68C20.6539 126.832 23.2744 123.95 36.548 110.339L40.9154 105.847L41.7204 103.982C43.0221 100.897 43.5873 98.253 43.8784 93.7272C44.1525 89.7946 44.6663 87.608 46.3276 83.4043C46.8928 81.9465 47.5608 80.4888 47.8177 80.1497C50.8492 75.9799 53.5896 73.1152 56.3984 71.149C59.8581 68.7081 64.6538 66.7079 69.0041 65.8943C70.7168 65.5722 71.6074 65.5214 74.6389 65.5214C77.876 65.5214 78.4583 65.5722 80.3937 65.979C83.271 66.5723 85.3263 67.2673 87.8269 68.4708C95.2772 72.0474 100.946 78.4377 103.464 86.1333C104.886 90.4388 105.211 96.524 104.235 100.745C103.909 102.186 102.591 105.593 101.529 107.711C98.8568 113.068 94.3352 117.916 88.7518 121.374C87.6727 122.035 86.628 122.73 86.4225 122.916C86.0628 123.255 86.0628 123.289 86.3197 123.798C86.4738 124.086 88.3407 126.577 90.4645 129.323C92.6054 132.069 95.1916 135.426 96.2192 136.782C97.2469 138.138 98.8568 140.24 99.8159 141.443C100.775 142.664 102.625 145.054 103.944 146.783C108.225 152.393 109.493 154.292 109.133 154.495C108.876 154.665 100.929 154.834 100.364 154.682C100.039 154.614 99.3706 153.868 98.069 152.156C97.0413 150.834 92.1601 144.494 87.2103 138.053C77.345 125.238 75.05 122.187 74.6218 121.306C73.9881 120.001 74.5362 119.509 78.5268 117.695C88.1009 113.356 93.0678 108.61 95.4485 101.558C97.2126 96.2698 96.9386 91.1676 94.6093 86.3367C93.4446 83.9128 92.2115 82.2008 90.3275 80.3193C87.6042 77.6411 84.2987 75.7595 80.5821 74.7934C78.3384 74.217 73.4571 74.0475 70.9566 74.4713C61.5709 76.0985 54.4117 83.6077 53.3155 93.0491C53.1956 93.9306 53.1271 97.0156 53.1271 99.8972L53.1614 105.152L52.7161 106.033C52.442 106.593 51.7912 107.372 51.0376 108.084C50.3696 108.711 47.3381 111.644 44.3237 114.576C41.3093 117.509 37.764 120.95 36.4452 122.204C33.722 124.798 27.5733 131.425 25.518 133.968C22.3838 137.85 19.7119 141.867 17.6224 145.749C13.1693 154.088 10.7886 161.191 8.27087 173.785C7.29462 178.667 7.346 178.446 7.19185 178.192Z" fill="#75A709"/>
</g>
<g style="mix-blend-mode:luminosity">
<path d="M16.8456 218.984C16.062 218.916 15.9257 218.848 15.7723 218.473C15.3975 217.468 14.3413 209.663 13.8302 204.108C13.5235 200.768 13.4724 186.608 13.745 182.961C14.3413 175.191 15.8064 168.17 18.1746 161.763C19.1797 159.003 22.2974 152.562 23.8136 150.04C28.7883 141.809 35.7903 133.886 57.5288 111.836C60.851 108.462 63.9516 105.292 64.4286 104.798L65.2634 103.912L64.3945 103.009C61.9413 100.487 60.851 97.2493 61.2428 93.5345C61.6517 89.6834 64.0709 86.2924 67.6656 84.5714C71.1069 82.9185 74.3098 82.9185 77.8023 84.6055C79.1652 85.253 79.6592 85.6108 80.8859 86.8548C83.2199 89.1893 84.3272 91.8305 84.3272 95.0511C84.3102 98.1865 83.3221 100.572 81.0733 102.924C79.9318 104.116 79.3526 104.559 78.1771 105.156C77.3593 105.582 76.1668 106.076 75.5194 106.281C74.429 106.621 74.2076 106.775 72.2824 108.632C68.6026 112.159 46.7959 134.261 43.9508 137.328C35.8584 146.069 31.5652 151.982 27.8854 159.48C25.364 164.609 23.8307 169.159 22.6892 174.884C21.6841 179.877 21.1389 184.342 21.5478 184.342C21.6159 184.342 22.2463 183.438 22.9448 182.331C26.5054 176.759 32.8089 169.483 41.2079 161.252L45.2115 157.316L45.3137 155.799C45.4159 154.061 46.0122 151.999 46.7959 150.653C47.4773 149.46 49.198 147.654 50.4246 146.819C53.8149 144.519 58.1592 144.212 61.8731 146.001C64.3605 147.194 66.0301 148.864 67.3078 151.42C68.1766 153.158 68.4322 154.283 68.4322 156.447C68.4322 160.025 67.3248 162.513 64.6501 164.984C63.3553 166.194 61.1235 167.421 59.5391 167.796C58.4147 168.068 55.0756 168.034 53.9853 167.744C52.7246 167.404 50.9528 166.552 49.9135 165.751C49.4195 165.393 48.9595 165.086 48.8913 165.086C48.738 165.086 40.5946 173.265 37.7495 176.247C34.257 179.945 30.1512 185.057 27.8683 188.55C26.6928 190.374 23.7455 195.997 23.2003 197.462C22.4166 199.558 21.5819 202.336 21.5819 202.796C21.5819 203.307 21.5819 203.307 21.9396 202.984C22.127 202.813 22.7233 202.063 23.2344 201.297C24.8188 199.03 26.1476 197.48 28.4816 195.162C32.1445 191.498 34.8874 189.488 38.9591 187.409C44.4959 184.614 48.1417 183.455 63.7131 179.553C67.4782 178.616 71.7202 177.543 73.1172 177.168C80.6644 175.123 87.2916 172.754 93.2203 169.96L95.1965 169.022L100.001 169.874C102.641 170.335 105.197 170.761 105.691 170.829C106.185 170.88 106.594 170.982 106.594 171.05C106.594 171.255 103.153 173.3 100.29 174.782C89.4382 180.456 81.6355 183.217 65.6212 187.068C51.6172 190.442 47.6647 191.737 42.0256 194.821C35.8073 198.212 30.6793 203.103 26.7439 209.391C26.1817 210.277 24.8188 212.782 23.7114 214.929C22.604 217.093 21.7011 218.865 21.6841 218.865C21.6159 218.95 17.5953 219.035 16.8456 218.984ZM57.8525 160.468C58.8577 160.264 60.0843 159.258 60.6124 158.236C61.9243 155.646 60.1695 152.63 57.1881 152.357C56.4555 152.289 55.9615 152.34 55.4163 152.545C54.5645 152.868 53.3719 154.061 52.9971 154.947C52.6905 155.697 52.6905 157.265 52.9971 157.997C53.4912 159.173 54.6838 160.196 55.9104 160.502C56.66 160.673 56.9155 160.673 57.8525 160.468ZM74.5313 98.7318C75.2298 98.3739 76.1668 97.3856 76.5416 96.6188C76.9504 95.7838 76.9504 94.148 76.5586 93.33C75.5535 91.2852 73.1343 90.2969 71.1921 91.1318C69.0455 92.052 67.9892 94.6592 68.9263 96.6699C69.3522 97.6071 70.4425 98.5954 71.3454 98.9022C72.2484 99.1918 73.7987 99.1066 74.5313 98.7318Z" fill="#C9A227"/>
</g>
</svg>
