<svg width="32" height="31" viewBox="0 0 32 31" fill="none" xmlns="http://www.w3.org/2000/svg">
<path d="M29.3547 14.7481C29.0909 15.0967 28.72 15.3508 28.3037 15.4818C28.2533 18.3149 27.1541 20.8854 25.3837 22.8928C25.3808 22.8207 25.4021 22.7252 25.4307 22.5826C26.2775 21.5884 26.1225 19.6294 24.4004 19.8468C23.5072 20.5258 22.2652 21.3989 21.1819 20.3945C20.8697 20.1223 20.6841 19.8004 20.5915 19.4536C20.5691 19.4753 20.5472 19.4971 20.5247 19.5188C19.009 20.9872 17.4792 22.3366 15.9845 23.5503C16.4735 23.9087 16.6666 24.4628 16.1408 25.0816C15.5062 25.5343 14.755 25.9317 13.9728 26.2003V26.2245C13.5461 26.3871 13.0415 26.4979 12.5551 26.5339C12.4199 26.4939 12.3013 26.4508 12.1682 26.4061C11.6985 26.7302 11.2452 27.0373 10.7949 27.3265C12.435 28.0108 14.2454 28.3905 16.1433 28.3905C23.6162 28.3905 29.6805 22.5169 29.6805 15.2782C29.6805 14.9241 29.6666 14.5735 29.638 14.2266C29.57 14.4113 29.4765 14.5874 29.3547 14.7481Z" fill="#242528"/>
<path d="M8.00459 22.966C7.94166 22.8951 7.87979 22.8235 7.82091 22.7501C7.45646 22.3953 7.40434 21.9979 7.42717 21.5839C7.43286 21.5811 7.41942 21.5631 7.42724 21.5603C7.46941 20.8756 7.72086 20.1579 7.20708 19.5377C6.40537 18.2391 5.39709 17.0484 4.87314 15.6113C4.8176 14.1215 4.72907 12.6941 5.24192 11.2799C6.37956 9.0177 9.21078 6.60522 11.0622 5.06982C12.7605 5.61742 10.2026 7.355 11.4801 8.043C11.611 8.03955 11.7181 8.0742 11.8239 8.1156C11.8603 8.07902 11.8702 8.10045 11.8739 8.13786C12.4433 8.39819 12.5705 9.18807 11.6281 9.1375C10.3254 8.77894 9.81508 11.4702 11.087 11.1381C11.553 9.86979 12.9678 10.4044 13.2251 11.5181C13.9826 12.6631 12.4319 12.6486 11.8988 13.1358C12.434 14.0759 10.9527 13.579 10.3997 14.0399C9.33913 14.2678 9.01188 15.8267 8.09163 15.8723C8.05088 14.2429 5.24761 14.7917 5.70784 16.2773C6.3066 16.7279 7.10482 17.1972 6.98542 18.1574C6.93814 20.1816 9.50496 19.5157 10.6454 20.5844C10.7177 20.6151 10.7877 20.6484 10.8574 20.6824C12.6247 19.1982 14.5322 17.4779 16.4756 15.5953C17.8036 14.3087 19.053 13.0385 20.2004 11.8165C20.2096 11.7692 20.2258 11.7172 20.2507 11.6601C19.9591 11.399 19.9913 11.2898 20.1507 11.28C20.2637 11.2727 20.4357 11.3165 20.5928 11.3964C20.7257 11.2532 20.8569 11.111 20.9868 10.9693L20.3688 10.7964L20.1422 10.733L19.952 10.5979C19.2988 10.134 18.9758 9.33652 19.1292 8.56621C19.2825 7.79589 19.8881 7.17169 20.6718 6.97625L20.733 6.96096C20.5657 6.71172 20.3047 6.42941 20.1278 6.23563C20.0836 6.44257 20.0175 6.19491 20.052 6.16371C20.0335 6.14283 19.9948 6.10977 19.9798 6.0931C20.0949 4.71346 17.7234 5.92067 17.3253 4.68852C15.8303 3.9707 14.1268 3.93054 12.4626 4.0462C13.0992 3.84945 13.7524 3.73393 14.4283 3.6412C14.4934 3.63287 14.5583 3.62605 14.6243 3.61757C14.8099 3.60173 14.9957 3.58017 15.1643 3.54565C15.4873 3.5214 15.8194 3.4986 16.1476 3.49867C19.0747 3.4986 21.7598 4.50617 23.8575 6.18065L25.5674 5.75368C23.1508 3.6534 19.6246 2.16602 16.1476 2.16602C8.67673 2.16602 2.6123 8.03969 2.6123 15.2777C2.6123 18.7373 3.99819 21.8844 6.26009 24.2282C6.80722 23.8527 7.39054 23.4306 8.00459 22.966ZM8.80345 18.0619C8.60199 18.1386 8.38326 17.9989 8.26258 17.8473C7.81878 17.5842 7.8303 17.4174 7.99179 17.3717C8.0474 17.3571 8.10891 17.3641 8.18891 17.3718C8.25483 17.3792 8.34336 17.3965 8.41049 17.4194C8.41199 17.4298 8.40758 17.4241 8.41049 17.4431C8.67702 17.5329 8.92427 17.7337 8.80345 18.0619ZM10.3498 14.2252H10.3254C10.3083 14.1563 10.2939 14.1603 10.2775 14.1449C10.3939 14.0993 10.4634 14.1111 10.4984 14.1138C10.5863 14.1227 10.4691 14.2252 10.3498 14.2252ZM16.7865 7.82916C17.1383 9.19358 15.7333 10.0734 15.2153 11.1851C13.9212 10.8348 15.2861 9.45384 14.7236 8.78031C13.9482 8.0029 14.7931 7.2166 15.6311 7.11472C16.1364 7.05451 16.6409 7.25112 16.7865 7.82916ZM14.5256 6.92582C14.5686 6.91756 14.6244 6.90302 14.6737 6.90089C14.7237 6.90089 14.7645 6.91342 14.8217 6.92582C15.1145 6.92369 15.0174 7.2443 14.8217 7.32944C14.1248 7.96556 13.9498 7.03522 14.5256 6.92582ZM13.446 13.6363C13.6512 13.4287 13.2995 13.5048 13.2494 13.5166C12.8371 13.2425 12.885 13.1227 13.0766 13.0888C13.3995 13.0334 14.0842 13.2646 13.446 13.6363ZM12.9293 8.51929C12.9923 8.49994 13.0467 8.475 13.1024 8.4721C13.9198 8.42381 13.7605 10.1723 13.0767 10.4465C12.48 9.91216 13.2687 9.13468 12.9293 8.51929Z" fill="#242528"/>
<path d="M28.4582 2.40666C28.845 2.78135 28.4605 3.85188 27.48 5.38838C27.8731 5.41676 28.2459 5.54971 28.5657 5.77712C28.8191 5.95699 29.0236 6.18535 29.1697 6.44458C30.6996 3.74634 31.25 1.75545 30.5823 1.10859C29.8298 0.379603 27.5276 1.35459 24.4014 3.49641C24.5217 3.57563 24.6412 3.65665 24.7594 3.7398C26.6772 2.50972 28.0227 1.98485 28.4582 2.40666Z" fill="#242528"/>
<path d="M25.5773 11.7138L27.1954 14.1487C27.1958 14.1489 27.196 14.1491 27.1965 14.1494C27.5428 14.3956 28.0298 14.323 28.2837 13.9874C28.4024 13.8309 28.4492 13.6447 28.4305 13.4656L28.0977 7.38371C28.0852 7.15796 27.9689 6.9495 27.7807 6.81586C27.5926 6.68214 27.3525 6.63737 27.1265 6.69379L21.0032 8.22298C20.7119 8.29566 20.4904 8.52437 20.4334 8.81033C20.3766 9.09629 20.4948 9.38838 20.7372 9.5606L23.6266 10.3691C21.9313 12.3187 19.8824 14.4794 17.6026 16.6879C10.5343 23.5354 3.93453 28.2437 2.8616 27.2042C2.42619 26.7825 2.96784 25.479 4.2376 23.6213C4.1517 23.5067 4.06814 23.3909 3.98637 23.2743C1.77552 26.3028 0.769086 28.533 1.52158 29.2621C3.01406 30.7078 11.4355 26.2617 19.4605 18.4877C21.8193 16.2025 23.8795 13.885 25.5773 11.7138Z" fill="#242528"/>
</svg>
