<svg width="42" height="42" viewBox="0 0 42 42" fill="none" xmlns="http://www.w3.org/2000/svg">
<path d="M28.5469 18.0605L21.6562 22.1949V28.8624L28.5469 24.728V18.0605Z" fill="#242528"/>
<path d="M13.4531 24.728L20.3438 28.8624V22.1949L13.4531 18.0605V24.728Z" fill="#242528"/>
<path d="M27.9303 16.8982L21.0003 12.7441L14.0703 16.8982L21.0003 21.0523L27.9303 16.8982Z" fill="#242528"/>
<path d="M20.3435 7.93404V10.5C20.3435 10.674 20.4127 10.8409 20.5357 10.964C20.6588 11.0871 20.8257 11.1562 20.9998 11.1562C21.1738 11.1562 21.3407 11.0871 21.4638 10.964C21.5869 10.8409 21.656 10.674 21.656 10.5V7.93404C22.2938 7.77394 22.851 7.38622 23.2227 6.84388C23.5945 6.30155 23.7552 5.64201 23.6745 4.98946C23.5938 4.3369 23.2774 3.73635 22.7848 3.30086C22.2921 2.86537 21.6573 2.625 20.9998 2.625C20.3423 2.625 19.7074 2.86537 19.2148 3.30086C18.7221 3.73635 18.4057 4.3369 18.3251 4.98946C18.2444 5.64201 18.4051 6.30155 18.7768 6.84388C19.1486 7.38622 19.7058 7.77394 20.3435 7.93404Z" fill="#242528"/>
<path d="M11.7993 12.7242L13.1118 14.0432C13.1729 14.1048 13.2455 14.1538 13.3256 14.1872C13.4056 14.2207 13.4915 14.238 13.5783 14.2381C13.665 14.2383 13.751 14.2214 13.8312 14.1882C13.9113 14.1551 13.9842 14.1065 14.0456 14.0451C14.1069 13.9838 14.1555 13.9109 14.1887 13.8308C14.2218 13.7506 14.2387 13.6646 14.2386 13.5779C14.2384 13.4911 14.2211 13.4052 14.1876 13.3252C14.1542 13.2451 14.1052 13.1725 14.0436 13.1114L12.7246 11.7989C14.9468 8.41841 10.4368 4.69335 7.52718 7.52656C4.69912 10.4451 8.40606 14.9286 11.7993 12.7242Z" fill="#242528"/>
<path d="M7.93408 21.656H10.5C10.6741 21.656 10.841 21.5869 10.9641 21.4638C11.0871 21.3407 11.1563 21.1738 11.1563 20.9997C11.1563 20.8257 11.0871 20.6588 10.9641 20.5357C10.841 20.4126 10.6741 20.3435 10.5 20.3435L7.93408 20.3436C7.77398 19.7058 7.38627 19.1486 6.84393 18.7768C6.30159 18.4051 5.64205 18.2444 4.98949 18.325C4.33693 18.4057 3.73636 18.7221 3.30087 19.2148C2.86538 19.7074 2.625 20.3423 2.625 20.9998C2.625 21.6573 2.86538 22.2922 3.30087 22.7848C3.73636 23.2774 4.33693 23.5939 4.98949 23.6745C5.64205 23.7552 6.30159 23.5945 6.84393 23.2227C7.38627 22.851 7.77398 22.2937 7.93408 21.656Z" fill="#242528"/>
<path d="M30.2009 29.2746L28.8884 27.9556C28.7641 27.8359 28.5977 27.7698 28.4251 27.7715C28.2526 27.7732 28.0875 27.8425 27.9655 27.9645C27.8435 28.0865 27.7742 28.2516 27.7725 28.4241C27.7708 28.5967 27.8369 28.763 27.9565 28.8874L29.2756 30.1999C28.8981 30.7554 28.6968 31.4117 28.6981 32.0833C28.7063 32.7486 28.9097 33.3969 29.2829 33.9478C29.6562 34.4987 30.1829 34.9279 30.7978 35.1822C31.4126 35.4366 32.0886 35.5048 32.742 35.3786C33.3953 35.2524 33.9972 34.9372 34.4731 34.4721C37.3037 31.5474 33.5877 27.0727 30.2009 29.2746Z" fill="#242528"/>
<path d="M34.066 20.3436H31.5001C31.3278 20.3461 31.1633 20.4164 31.0423 20.5392C30.9213 20.662 30.8535 20.8274 30.8535 20.9998C30.8535 21.1722 30.9213 21.3377 31.0423 21.4605C31.1633 21.5832 31.3277 21.6535 31.5001 21.6561L34.066 21.656C34.2261 22.2937 34.6138 22.851 35.1562 23.2227C35.6985 23.5945 36.358 23.7552 37.0106 23.6745C37.6632 23.5939 38.2637 23.2774 38.6992 22.7848C39.1347 22.2922 39.3751 21.6573 39.3751 20.9998C39.3751 20.3423 39.1347 19.7074 38.6992 19.2148C38.2637 18.7221 37.6632 18.4057 37.0106 18.325C36.358 18.2444 35.6985 18.4051 35.1562 18.7768C34.6138 19.1486 34.2261 19.7058 34.066 20.3436Z" fill="#242528"/>
<path d="M13.1118 27.9567L11.7994 29.2758C8.41179 27.0743 4.69732 31.5473 7.52708 34.4732C10.4265 37.309 14.9503 33.5821 12.7246 30.2011L14.0437 28.8886C14.1664 28.7649 14.2352 28.5975 14.2348 28.4232C14.2344 28.2489 14.165 28.0819 14.0418 27.9586C13.9186 27.8354 13.7515 27.766 13.5772 27.7656C13.4029 27.7653 13.2356 27.834 13.1118 27.9567Z" fill="#242528"/>
<path d="M21.6559 34.0659V31.5C21.6559 31.326 21.5867 31.159 21.4637 31.036C21.3406 30.9129 21.1737 30.8438 20.9996 30.8438C20.8256 30.8438 20.6586 30.9129 20.5356 31.036C20.4125 31.159 20.3434 31.326 20.3434 31.5L20.3434 34.0659C19.7033 34.2261 19.1439 34.6148 18.7705 35.1588C18.3971 35.7028 18.2355 36.3646 18.3162 37.0194C18.3969 37.6743 18.7142 38.2771 19.2085 38.7142C19.7028 39.1513 20.3398 39.3926 20.9997 39.3926C21.6595 39.3926 22.2965 39.1513 22.7908 38.7142C23.2851 38.2771 23.6024 37.6743 23.6831 37.0194C23.7638 36.3646 23.6022 35.7028 23.2288 35.1588C22.8554 34.6148 22.296 34.2261 21.6559 34.0659Z" fill="#242528"/>
<path d="M28.8885 14.0439L30.201 12.7249C30.8278 13.1435 31.5765 13.3407 32.3281 13.2851C33.0798 13.2295 33.7914 12.9243 34.3497 12.418C34.908 11.9116 35.2812 11.2332 35.4098 10.4906C35.5384 9.74788 35.4151 8.98353 35.0595 8.31894C34.7039 7.65436 34.1364 7.12767 33.4472 6.82256C32.758 6.51745 31.9866 6.45143 31.2555 6.63497C30.5245 6.81852 29.8757 7.24111 29.4124 7.83561C28.949 8.4301 28.6977 9.16239 28.6982 9.91612C28.6969 10.5877 28.8982 11.2441 29.2757 11.7996L27.9566 13.1121C27.895 13.1732 27.8461 13.2458 27.8127 13.3259C27.7792 13.4059 27.7619 13.4918 27.7617 13.5786C27.7615 13.6653 27.7785 13.7513 27.8116 13.8314C27.8447 13.9116 27.8934 13.9845 27.9547 14.0458C28.0161 14.1072 28.0889 14.1558 28.1691 14.1889C28.2493 14.2221 28.3352 14.239 28.422 14.2388C28.5088 14.2387 28.5946 14.2214 28.6747 14.1879C28.7547 14.1545 28.8274 14.1055 28.8885 14.0439Z" fill="#242528"/>
</svg>
