<svg width="34" height="34" viewBox="0 0 34 34" fill="none" xmlns="http://www.w3.org/2000/svg">
<path d="M8.50033 32.5827C7.72116 32.5827 7.05414 32.3053 6.49928 31.7504C5.94442 31.1955 5.66699 30.5285 5.66699 29.7493V4.24935C5.66699 3.47018 5.94442 2.80317 6.49928 2.24831C7.05414 1.69345 7.72116 1.41602 8.50033 1.41602H22.667C23.4462 1.41602 24.1132 1.69345 24.668 2.24831C25.2229 2.80317 25.5003 3.47018 25.5003 4.24935V9.91602H22.667V8.49935H8.50033V25.4993H22.667V24.0827H25.5003V29.7493C25.5003 30.5285 25.2229 31.1955 24.668 31.7504C24.1132 32.3053 23.4462 32.5827 22.667 32.5827H8.50033ZM8.50033 28.3327V29.7493H22.667V28.3327H8.50033ZM21.1795 22.666L15.1587 16.6452L17.142 14.6618L21.1795 18.6993L29.1837 10.6952L31.167 12.6785L21.1795 22.666ZM8.50033 5.66602H22.667V4.24935H8.50033V5.66602Z" fill="#242528"/>
</svg>
