<svg width="34" height="34" viewBox="0 0 34 34" fill="none" xmlns="http://www.w3.org/2000/svg">
<path d="M21.958 15.584C22.5483 15.584 23.05 15.3774 23.4632 14.9642C23.8764 14.551 24.083 14.0493 24.083 13.459C24.083 12.8687 23.8764 12.367 23.4632 11.9538C23.05 11.5406 22.5483 11.334 21.958 11.334C21.3677 11.334 20.866 11.5406 20.4528 11.9538C20.0396 12.367 19.833 12.8687 19.833 13.459C19.833 14.0493 20.0396 14.551 20.4528 14.9642C20.866 15.3774 21.3677 15.584 21.958 15.584ZM12.0413 15.584C12.6316 15.584 13.1334 15.3774 13.5465 14.9642C13.9597 14.551 14.1663 14.0493 14.1663 13.459C14.1663 12.8687 13.9597 12.367 13.5465 11.9538C13.1334 11.5406 12.6316 11.334 12.0413 11.334C11.4511 11.334 10.9493 11.5406 10.5361 11.9538C10.1229 12.367 9.91634 12.8687 9.91634 13.459C9.91634 14.0493 10.1229 14.551 10.5361 14.9642C10.9493 15.3774 11.4511 15.584 12.0413 15.584ZM16.9997 24.7923C18.6052 24.7923 20.0632 24.3378 21.3736 23.4288C22.684 22.5197 23.6344 21.3215 24.2247 19.834H9.77467C10.365 21.3215 11.3153 22.5197 12.6257 23.4288C13.9361 24.3378 15.3941 24.7923 16.9997 24.7923ZM16.9997 31.1673C15.04 31.1673 13.1983 30.7954 11.4747 30.0517C9.75106 29.3079 8.25176 28.2986 6.97676 27.0236C5.70176 25.7486 4.69238 24.2493 3.94863 22.5257C3.20488 20.802 2.83301 18.9604 2.83301 17.0007C2.83301 15.0409 3.20488 13.1993 3.94863 11.4757C4.69238 9.75204 5.70176 8.25273 6.97676 6.97773C8.25176 5.70273 9.75106 4.69336 11.4747 3.94961C13.1983 3.20586 15.04 2.83398 16.9997 2.83398C18.9594 2.83398 20.8011 3.20586 22.5247 3.94961C24.2483 4.69336 25.7476 5.70273 27.0226 6.97773C28.2976 8.25273 29.307 9.75204 30.0507 11.4757C30.7945 13.1993 31.1663 15.0409 31.1663 17.0007C31.1663 18.9604 30.7945 20.802 30.0507 22.5257C29.307 24.2493 28.2976 25.7486 27.0226 27.0236C25.7476 28.2986 24.2483 29.3079 22.5247 30.0517C20.8011 30.7954 18.9594 31.1673 16.9997 31.1673ZM16.9997 28.334C20.1636 28.334 22.8434 27.2361 25.0393 25.0402C27.2351 22.8444 28.333 20.1645 28.333 17.0007C28.333 13.8368 27.2351 11.1569 25.0393 8.96107C22.8434 6.76523 20.1636 5.66732 16.9997 5.66732C13.8358 5.66732 11.1559 6.76523 8.96009 8.96107C6.76426 11.1569 5.66634 13.8368 5.66634 17.0007C5.66634 20.1645 6.76426 22.8444 8.96009 25.0402C11.1559 27.2361 13.8358 28.334 16.9997 28.334Z" fill="#242528"/>
</svg>
